<svg width="119" height="129" viewBox="0 0 119 129" fill="none" xmlns="http://www.w3.org/2000/svg">
<path d="M40.6 81.2H118.6V43.7L31.2 25.4L28.1 12.5L15.5 8.3C15.5 8.1 15.6 8 15.6 7.8C15.6 3.5 12.1 0 7.8 0C3.5 0 0 3.5 0 7.8C0 12.1 3.5 15.6 7.8 15.6C9.6 15.6 11.2 15 12.5 14L21.9 18.7L34.3 78L21.8 87.4V103L27.5 110.1C25.9 112 25 114.4 25 117.1C25 123.1 29.9 128 35.9 128C41.9 128 46.8 123.1 46.8 117.1C46.8 111.1 41.9 106.2 35.9 106.2C35 106.2 34.1 106.3 33.3 106.5L31.2 103.1H96.8L100.4 109.1C98.2 111.1 96.8 114 96.8 117.2C96.8 123.2 101.7 128.1 107.7 128.1C113.7 128.1 118.6 123.2 118.6 117.2C118.6 111.2 113.7 106.3 107.7 106.3H107.4L106.1 103.2H118.6V97H28.1V90.8L40.6 81.2ZM40.6 74.9L36 53.5L36.6 56.5L55.1 58L58.9 75H40.6V74.9ZM62.4 74.9L58.7 58.2L76.8 59.6L78.2 74.9H62.4ZM81.2 74.9L79.8 59.9L96.8 61.2V74.9H81.2ZM112.4 59.3V74.9H99.9V61.5L112.4 62.5V59.3L99.9 58.3V44.4L112.4 46.8V59.3ZM31.2 31.2L96.8 43.8V58L79.5 56.6L78 40.2L74.9 39.6L76.5 56.4L58 54.9L53.7 35.6L50 34.9L54.4 54.6L35.9 53.1L31.2 31.2ZM107.7 112.4C110.3 112.4 112.4 114.5 112.4 117.1C112.4 119.7 110.3 121.8 107.7 121.8C105.1 121.8 103 119.7 103 117.1C103 114.5 105.1 112.4 107.7 112.4ZM35.9 112.4C38.5 112.4 40.6 114.5 40.6 117.1C40.6 119.7 38.5 121.8 35.9 121.8C33.3 121.8 31.2 119.7 31.2 117.1C31.2 114.5 33.3 112.4 35.9 112.4Z" fill="white"/>
</svg>
